Coordinates
version=1
nRows=12
nColumns=33
inDegrees=yes

Units are S.I. units (second, meters, Newtons, ...)
Angles are in degrees.

endheader
time	ground_thorax_rot_x	ground_thorax_rot_y	ground_thorax_rot_z	ground_thorax_tx	ground_thorax_ty	ground_thorax_tz	clav_prot_r	clav_elev_r	scapula_abduction_r	scapula_elevation_r	scapula_upward_rot_r	scapula_winging_r	shoulder_elv_r	plane_of_elev_r	axial_rot_r	elbow_flexion_r	pro_sup_r	wrist_flex_r	wrist_dev_r	clav_prot_l	clav_elev_l	scapula_abduction_l	scapula_elevation_l	scapula_upward_rot_l	scapula_winging_l	shoulder_elv_l	plane_of_elev_l	axial_rot_l	elbow_flexion_l	pro_sup_l	wrist_flex_l	wrist_dev_l
      9.81000000	    -41.59181268	     -1.10561441	      1.85290069	    -97.24451507	    884.55656675	     -6.33944860	     -3.11349015	    -45.00000000	     45.00000000	    -45.00000000	     31.66660347	   2051.49266672	    790.57740757	     22.17512044	   -179.99999979	   1444.86011302	    -90.22212810	     22.12223070	     12.09527299	     16.93947702	     42.30118743	    -45.00000000	    -45.00000000	    -31.78022118	  -2074.38201598	  -3528.11175687	     22.21057221	    -35.01110724	   1450.45808421	   -349.24203485	     10.91833669	    -21.61289012
      9.82000000	    -41.57166231	     -0.98045936	      1.73707686	    -92.66661347	    881.41583580	     -6.06871369	     -3.51475841	    -45.00000000	     45.00000000	    -45.00000000	     32.29969125	   2051.38552017	    790.00864992	     22.17915661	   -179.99999979	   1445.02041144	    -93.17408497	     21.75413454	     12.50670288	     16.81371520	     42.40971349	    -45.00000000	    -45.00000000	    -30.95642325	  -2074.85648189	  -3528.39302784	     22.28700061	    -34.66449854	   1450.29681562	   -351.86614451	     11.46303836	    -21.33573968
      9.83000000	    -41.54669419	     -0.97332891	      1.64092337	    -88.03283293	    878.07597822	     -5.80939675	     -3.83235395	    -45.00000000	     45.00000000	    -45.00000000	     32.82028775	   2051.30517945	    789.37077201	     22.15329695	   -179.99999979	   1445.19344292	    -96.07892554	     21.40263196	     12.86640963	     16.72037284	     42.62227917	    -45.00000000	    -45.00000000	    -30.26792623	  -2075.26696527	  -3528.73506753	     22.40895394	    -34.29437886	   1450.11622489	   -353.92125870	     11.97377103	    -21.05705186
      9.84000000	    -41.54765873	     -0.99881122	      1.65276816	    -83.35858194	    874.56123083	     -5.56520437	     -4.15894604	    -45.00000000	     45.00000000	    -45.00000000	     33.13901096	   2051.22355496	    788.74591125	     22.08389925	   -179.99999979	   1445.34436933	    -98.79642957	     20.98718340	     13.16874212	     16.71426576	     42.70187208	    -45.00000000	    -45.00000000	    -29.87923255	  -2075.79817582	  -3528.92584701	     22.59669421	    -33.53983859	   1449.96664116	   -355.41837288	     12.37966164	    -20.79112124
      9.85000000	    -41.53564162	     -0.92850001	      1.52802734	    -78.66130904	    870.89702343	     -5.33725978	     -4.56385954	    -45.00000000	     45.00000000	    -45.00000000	     33.54052638	   2051.09881843	    788.04409404	     22.05149506	   -179.99999979	   1445.47157763	   -101.29713495	     20.65617996	     13.41175547	     16.61452749	     42.83271419	    -45.00000000	    -45.00000000	    -29.23961970	  -2076.30797804	  -3529.28254705	     22.78290506	    -32.78245299	   1449.81499121	   -356.28441035	     12.70154416	    -20.54513879
      9.86000000	    -41.54591881	     -1.35936675	      1.91922582	    -73.96078670	    867.10926878	     -5.12380390	     -4.62745488	    -45.00000000	     45.00000000	    -45.00000000	     33.60240622	   2051.02544794	    787.52826155	     21.83606799	   -179.99999979	   1445.59239769	   -103.12194736	     20.23424639	     13.51366212	     16.96767309	     43.05675471	    -45.00000000	    -45.00000000	    -29.19688299	  -2076.70402648	  -3529.64502814	     22.94962369	    -32.38533025	   1449.68838094	   -356.47420836	     12.70151981	    -20.41208775
      9.87000000	    -41.52682181	     -0.94628224	      1.45281600	    -69.27257498	    863.21918355	     -4.92017840	     -5.33814234	    -45.00000000	     45.00000000	    -45.00000000	     34.27931572	   2050.84125208	    786.71468463	     21.90390989	   -179.99999979	   1445.75789627	   -104.84647658	     19.99476479	     13.66244425	     16.53429822	     43.12975603	    -45.00000000	    -45.00000000	    -28.29701789	  -2077.30625041	  -3530.00865551	     23.24193710	    -31.15584426	   1449.51921290	   -356.30448740	     13.05008029	    -20.19568323
      9.88000000	    -41.51977677	     -1.15356759	      1.61658077	    -64.61307595	    859.24996451	     -4.71686048	     -5.45915048	    -45.00000000	     45.00000000	    -45.00000000	     34.25463217	   2050.78798465	    786.05323298	     21.75953800	   -179.99999979	   1445.83407496	   -105.96707333	     19.70019887	     13.67016156	     16.84706055	     43.25390236	    -45.00000000	    -45.00000000	    -28.41378975	  -2077.96928693	  -3530.15393695	     23.44449087	    -30.15154428	   1449.40352148	   -355.68498633	     13.19525300	    -20.10748188
      9.89000000	    -41.53607026	     -1.54769317	      2.01724824	    -60.00124602	    855.22636611	     -4.50818910	     -5.49466201	    -45.00000000	     45.00000000	    -45.00000000	     34.15740601	   2050.68051120	    785.51474316	     21.51836122	   -179.99999979	   1445.81453243	   -106.57215532	     19.42148832	     13.57727457	     17.15621936	     43.42212625	    -45.00000000	    -45.00000000	    -28.50038492	  -2078.42366269	  -3530.56777953	     23.64889842	    -29.72574810	   1449.26485990	   -354.86543375	     13.09237199	    -20.04706995
      9.90000000	    -41.53672876	     -1.67440708	      2.09272494	    -55.45787042	    851.17537090	     -4.28912229	     -5.70388533	    -45.00000000	     45.00000000	    -45.00000000	     34.22689190	   2050.60405384	    784.85377207	     21.39369720	   -179.99999979	   1445.88576448	   -106.82332874	     19.16284988	     13.48325695	     17.33622275	     43.51934738	    -45.00000000	    -45.00000000	    -28.43501056	  -2079.06332356	  -3530.84268932	     23.84428093	    -28.65896870	   1449.03697139	   -354.02147411	     13.26066680	    -19.94652237
      9.91000000	    -41.56046963	     -1.70767519	      2.08167014	    -50.99957957	    847.12816341	     -4.06038159	     -6.05466557	    -45.00000000	     45.00000000	    -45.00000000	     34.34861070	   2050.48165294	    784.18163080	     21.24813927	   -179.99999979	   1445.88529097	   -106.81342074	     18.96451342	     13.34893009	     17.38240581	     43.64712832	    -45.00000000	    -45.00000000	    -28.32378759	  -2079.66572309	  -3531.12006914	     24.07231647	    -27.69027665	   1448.84806907	   -353.14938465	     13.36403987	    -19.85188139
      9.92000000	    -41.59479455	     -1.48807061	      1.81731509	    -46.64907423	    843.11980871	     -3.81934340	     -6.58204740	    -45.00000000	     45.00000000	    -45.00000000	     34.66077462	   2050.32009736	    783.43311275	     21.18703658	   -179.99999979	   1445.93064733	   -106.55166178	     18.77237572	     13.21173005	     17.24240928	     43.69265727	    -45.00000000	    -45.00000000	    -28.01154481	  -2080.34087793	  -3531.29624053	     24.30033817	    -26.59500009	   1448.65926547	   -352.21686054	     13.61070963	    -19.73346652
